<svg xmlns="http://www.w3.org/2000/svg" viewBox="0 0 32 32"><path d="M 15.568359 2.5175781 L 12.132812 6.1992188 L 15.568359 9.8828125 L 17.03125 8.5175781 L 15.667969 7.0566406 C 20.322608 7.3978251 23.976563 11.255986 23.976562 16 C 23.976562 20.969528 19.969528 24.976563 15 24.976562 L 0.99804688 25 L 1.0019531 27 L 15 26.976562 C 21.050472 26.976562 25.976562 22.050472 25.976562 16 C 25.976562 10.260489 21.542225 5.5411118 15.921875 5.0703125 L 17.03125 3.8828125 L 15.568359 2.5175781 z M 9.6796875 6.4003906 C 6.1896875 8.3303906 4.0195312 12.01 4.0195312 16 C 4.0195312 18.65 4.9707812 21.1 6.5507812 23 L 9.3808594 23 C 7.3308594 21.35 6.0195312 18.83 6.0195312 16 C 6.0195313 12.74 7.8003906 9.7303906 10.650391 8.1503906 L 9.6796875 6.4003906 z M 28.431641 22.318359 L 26.96875 23.681641 L 28.199219 25 L 24.369141 25 C 23.639141 25.77 22.819922 26.44 21.919922 27 L 28.199219 27 L 26.96875 28.318359 L 28.431641 29.681641 L 31.867188 26 L 28.431641 22.318359 z"></path></svg>
